<?xml version="1.0" encoding="UTF-8" standalone="no"?>
<!-- Created with Inkscape (http://www.inkscape.org/) -->

<svg
   width="614.17828"
   height="554.40112"
   viewBox="0 0 204.72609 184.80037"
   version="1.1"
   id="svg1"
   xml:space="preserve"
   inkscape:version="1.4.2 (ebf0e940, 2025-05-08)"
   sodipodi:docname="logo.svg"
   xmlns:inkscape="http://www.inkscape.org/namespaces/inkscape"
   xmlns:sodipodi="http://sodipodi.sourceforge.net/DTD/sodipodi-0.dtd"
   xmlns:xlink="http://www.w3.org/1999/xlink"
   xmlns="http://www.w3.org/2000/svg"
   xmlns:svg="http://www.w3.org/2000/svg"><sodipodi:namedview
     id="namedview1"
     pagecolor="#ffffff"
     bordercolor="#000000"
     borderopacity="0.25"
     inkscape:showpageshadow="2"
     inkscape:pageopacity="0.0"
     inkscape:pagecheckerboard="0"
     inkscape:deskcolor="#d1d1d1"
     inkscape:document-units="px"
     inkscape:zoom="0.74118967"
     inkscape:cx="314.35948"
     inkscape:cy="434.43671"
     inkscape:window-width="1704"
     inkscape:window-height="971"
     inkscape:window-x="1614"
     inkscape:window-y="1490"
     inkscape:window-maximized="0"
     inkscape:current-layer="layer6" /><defs
     id="defs1" /><g
     id="logo"
     transform="matrix(1.0359756,0,0,1.0359756,116.00337,54.388572)"
     inkscape:label="Rust Logo"
     style="display:inline"
     sodipodi:insensitive="true"><path
       id="r"
       transform="translate(0.5,0.5)"
       stroke="#000000"
       stroke-width="1"
       stroke-linejoin="round"
       d="M -9,-15 H 4 c 8,0 8,8 0,8 H -9 Z M -40,22 H 0 V 11 H -9 V 3 H 1 C 12,3 6,22 15,22 H 40 V 3 h -6 v 2 c 0,8 -9,7 -10,2 -1,-5 -5,-9 -6,-9 15,-8 6,-24 -6,-24 h -47 v 11 h 10 v 26 h -15 z" /><g
       id="gear"
       mask="url(#holes)"><circle
         r="43"
         fill="none"
         stroke="#000000"
         stroke-width="9"
         id="circle1"
         cx="0"
         cy="0" /><g
         id="cogs"><polygon
           id="cog"
           stroke="#000000"
           stroke-width="3"
           stroke-linejoin="round"
           points="46,3 51,0 46,-3 " /><use
           xlink:href="#cog"
           transform="rotate(11.25)"
           id="use1" /><use
           xlink:href="#cog"
           transform="rotate(22.5)"
           id="use2" /><use
           xlink:href="#cog"
           transform="rotate(33.75)"
           id="use3" /><use
           xlink:href="#cog"
           transform="rotate(45)"
           id="use4" /><use
           xlink:href="#cog"
           transform="rotate(56.25)"
           id="use5" /><use
           xlink:href="#cog"
           transform="rotate(67.5)"
           id="use6" /><use
           xlink:href="#cog"
           transform="rotate(78.75)"
           id="use7" /><use
           xlink:href="#cog"
           transform="rotate(90)"
           id="use8" /><use
           xlink:href="#cog"
           transform="rotate(101.25)"
           id="use9" /><use
           xlink:href="#cog"
           transform="rotate(112.5)"
           id="use10" /><use
           xlink:href="#cog"
           transform="rotate(123.75)"
           id="use11" /><use
           xlink:href="#cog"
           transform="rotate(135)"
           id="use12" /><use
           xlink:href="#cog"
           transform="rotate(146.25)"
           id="use13" /><use
           xlink:href="#cog"
           transform="rotate(157.5)"
           id="use14" /><use
           xlink:href="#cog"
           transform="rotate(168.75)"
           id="use15" /><use
           xlink:href="#cog"
           transform="scale(-1)"
           id="use16" /><use
           xlink:href="#cog"
           transform="rotate(-168.75)"
           id="use17" /><use
           xlink:href="#cog"
           transform="rotate(-157.5)"
           id="use18" /><use
           xlink:href="#cog"
           transform="rotate(-146.25)"
           id="use19" /><use
           xlink:href="#cog"
           transform="rotate(-135)"
           id="use20" /><use
           xlink:href="#cog"
           transform="rotate(-123.75)"
           id="use21" /><use
           xlink:href="#cog"
           transform="rotate(-112.5)"
           id="use22" /><use
           xlink:href="#cog"
           transform="rotate(-101.25)"
           id="use23" /><use
           xlink:href="#cog"
           transform="rotate(-90)"
           id="use24" /><use
           xlink:href="#cog"
           transform="rotate(-78.75)"
           id="use25" /><use
           xlink:href="#cog"
           transform="rotate(-67.5)"
           id="use26" /><use
           xlink:href="#cog"
           transform="rotate(-56.25)"
           id="use27" /><use
           xlink:href="#cog"
           transform="rotate(-45)"
           id="use28" /><use
           xlink:href="#cog"
           transform="rotate(-33.75)"
           id="use29" /><use
           xlink:href="#cog"
           transform="rotate(-22.5)"
           id="use30" /><use
           xlink:href="#cog"
           transform="rotate(-11.25)"
           id="use31" /></g><g
         id="mounts"><polygon
           id="mount"
           stroke="#000000"
           stroke-width="6"
           stroke-linejoin="round"
           points="-7,-42 0,-35 7,-42 " /><use
           xlink:href="#mount"
           transform="rotate(72)"
           id="use32" /><use
           xlink:href="#mount"
           transform="rotate(144)"
           id="use33" /><use
           xlink:href="#mount"
           transform="rotate(-144)"
           id="use34" /><use
           xlink:href="#mount"
           transform="rotate(-72)"
           id="use35" /></g></g><mask
       id="holes"><rect
         x="-60"
         y="-60"
         width="120"
         height="120"
         fill="#ffffff"
         id="rect35" /><circle
         id="hole"
         cy="-40"
         r="3"
         cx="0" /><use
         xlink:href="#hole"
         transform="rotate(72)"
         id="use36" /><use
         xlink:href="#hole"
         transform="rotate(144)"
         id="use37" /><use
         xlink:href="#hole"
         transform="rotate(-144)"
         id="use38" /><use
         xlink:href="#hole"
         transform="rotate(-72)"
         id="use39" /></mask></g><g
     style="display:inline;fill:none"
     id="g1"
     transform="matrix(0.7008034,0,0,0.7008034,0,2.6015468)"
     inkscape:label="Amber"
     sodipodi:insensitive="true"><path
       d="m 46.2769,91.2987 c 9.1527,0 18.0999,-2.6773 25.7101,-7.6933 7.6102,-5.016 13.5416,-12.1455 17.0442,-20.4868 3.5026,-8.3414 4.419,-17.5199 2.6334,-26.375 C 89.879,27.8885 85.4716,19.7545 78.9996,13.3704 72.5277,6.98617 64.2819,2.63849 55.3051,0.877097 46.3283,-0.884294 37.0235,0.0197241 28.5675,3.47481 20.1115,6.92991 12.884,12.7809 7.79907,20.2879 2.71409,27.7949 0,36.6207 0,45.6493 c 0,12.107 4.87557,23.7181 13.5542,32.279 8.6786,8.5609 20.4493,13.3704 32.7227,13.3704 z"
       fill="#0a1a42"
       id="path1"
       inkscape:label="Background" /><path
       d="m 45.2628,30.6519 c -3.002,0.0236 -5.9298,0.9233 -8.4142,2.5859 -2.4844,1.6625 -4.4142,4.0134 -5.5462,6.7563 -1.132,2.7428 -1.4154,5.7549 -0.8145,8.6564 0.6008,2.9015 2.059,5.5626 4.1908,7.6478 2.1318,2.0852 4.8416,3.5012 7.788,4.0694 2.9464,0.5682 5.9973,0.2633 8.7683,-0.8764 2.7709,-1.1397 5.1377,-3.0631 6.8021,-5.5278 1.6644,-2.4646 2.5519,-5.3602 2.5505,-8.3216 0.0031,-1.9801 -0.3921,-3.9411 -1.1628,-5.7695 -0.7706,-1.8283 -1.9014,-3.4876 -3.3267,-4.8819 -1.4254,-1.3942 -3.117,-2.4956 -4.9769,-3.2403 -1.8599,-0.7448 -3.8512,-1.1181 -5.8584,-1.0983 z m 0,-7.8235 c 6.1422,0.0019 12.0337,2.403 16.386,6.6782 4.3524,4.2752 6.8115,10.0765 6.8395,16.1353 v 22.2163 h -7.9159 v -5.3899 c -4.2155,3.7318 -9.6468,5.8505 -15.3096,5.9721 -6.1357,0 -12.0201,-2.4043 -16.3587,-6.6841 -4.3386,-4.2797 -6.776,-10.0843 -6.776,-16.1368 0,-6.0525 2.4374,-11.8571 6.776,-16.1368 4.3386,-4.2798 10.223,-6.6842 16.3587,-6.6842 z"
       fill="#00ffa8"
       id="path2"
       inkscape:label="Letter A" /></g><g
     inkscape:groupmode="layer"
     id="layer6"
     inkscape:label="Plug"
     style="opacity:1"
     transform="translate(-3.7897999,-6.4278946)"><path
       style="display:inline;opacity:1;fill:none;fill-opacity:1;stroke:#0a1a42;stroke-width:6.63307;stroke-linecap:round;stroke-linejoin:round;stroke-dasharray:none;stroke-opacity:1"
       d="m 167.38461,77.371174 c -7.95014,26.871446 4.26335,29.634726 14.31023,39.750666 10.04689,10.11594 10.17618,19.23932 10.17618,19.23932"
       id="path41"
       sodipodi:nodetypes="czc" /><path
       style="display:inline;opacity:1;fill:#c9c5c0;fill-opacity:1;stroke:#0a1a42;stroke-width:1.56758;stroke-linecap:round;stroke-linejoin:round;stroke-dasharray:none;stroke-opacity:1"
       d="m 178.89302,41.343116 9.71093,-11.957477 c 2.39149,-3.478539 6.08744,0.07247 4.05829,2.608903 l -8.91375,11.812538"
       id="path42"
       sodipodi:nodetypes="cccc" /><path
       style="display:inline;opacity:1;fill:#c9c5c0;fill-opacity:1;stroke:#0a1a42;stroke-width:1.56758;stroke-linecap:round;stroke-linejoin:round;stroke-dasharray:none;stroke-opacity:1"
       d="m 193.16953,50.256872 9.63845,-12.392296 c 2.31903,-2.608904 6.44979,0.28988 4.34817,3.188662 l -9.20363,12.247354"
       id="path43"
       sodipodi:nodetypes="cccc" /><path
       style="display:inline;opacity:1;fill:#ebc12e;fill-opacity:1;stroke:#0a1a42;stroke-width:1.56758;stroke-linecap:round;stroke-linejoin:round;stroke-dasharray:none;stroke-opacity:1"
       d="m 204.32984,57.648766 c -6.59473,-4.565582 -25.50928,-16.52306 -31.37932,-18.697146 -5.31875,6.345509 -11.32275,15.166387 -12.02974,17.553417 -0.95745,3.232658 0.80155,7.453125 2.31882,12.521451 0,0 -2.86376,2.089544 -2.46396,3.985824 0.39978,1.896281 11.20092,7.82939 13.91415,7.536835 2.71324,-0.292554 2.97125,-3.40607 2.97125,-3.40607 4.56559,-0.434817 11.15159,-1.201268 13.62428,-2.681372 2.47269,-1.480104 10.9429,-13.841687 13.04452,-16.812939 z"
       id="path40"
       sodipodi:nodetypes="ccsczzczc" /></g><g
     inkscape:groupmode="layer"
     id="layer3"
     inkscape:label="Ferris"
     style="display:inline"
     transform="translate(-3.7897999,-6.4278946)"><g
       inkscape:groupmode="layer"
       id="layer5"
       inkscape:label="Body"><path
         style="fill:#f74c00;fill-opacity:1;stroke:none;stroke-width:4.92182;stroke-linecap:round;stroke-linejoin:round;stroke-dasharray:none;stroke-opacity:1"
         d="m 111.56769,190.89077 c -28.092836,6.63743 -53.281581,26.67644 -63.652611,53.96525 -8.167945,21.25325 -7.926429,46.82096 4.406734,66.46809 3.570071,5.83025 8.422332,10.83872 14.185398,14.52824 -0.232534,14.22332 2.255196,29.16346 11.645703,40.39848 19.332856,25.2854 48.055606,40.54862 75.115716,55.87328 12.77543,9.7618 23.04092,22.52349 36.50043,31.51048 48.08902,34.96552 111.84918,45.93335 169.33783,31.96886 24.10922,-6.48116 47.0194,-17.64626 66.5128,-33.30858 26.97959,0.26688 56.88926,0.32089 79.48146,-16.63752 8.5036,-6.18944 14.41964,-15.03369 20.81133,-23.15166 8.88479,-5.2907 18.96915,-9.51078 25.02988,-18.41325 17.26008,-22.71919 13.42795,-55.18747 -0.55341,-78.5293 -9.55736,-15.9499 -24.23173,-29.98903 -42.26924,-35.43648 -4.96911,1.53 -0.0589,7.6375 -0.35403,11.05317 4.66509,19.36174 2.68982,39.68576 2.43165,59.23621 -0.62674,5.88286 -1.14337,12.63502 -4.27633,17.58444 -1.928,-3.38331 1.42678,-8.02635 1.37464,-11.71801 1.74389,-5.93485 -5.19744,-9.73257 -6.97575,-15.00934 -5.40382,-8.69773 -8.34069,-18.75191 -13.59101,-27.50436 -4.40045,-1.84062 -5.76277,5.01947 -7.44952,7.69548 -7.85144,16.30524 -7.35735,35.36969 -3.24776,52.60504 2.88177,10.49079 9.12292,19.51847 16.46424,27.34225 -0.11327,2.82967 -4.97398,4.70937 -6.84582,6.89239 -10.88782,9.0074 -25.65084,10.1206 -37.93934,16.47134 -2.08556,0.62465 -5.57915,2.75792 -7.2497,2.15433 3.42432,-4.45948 11.16339,-4.12219 13.69906,-8.99049 -2.22642,-5.22267 -8.45907,-8.49816 -10.83143,-13.2351 9.08676,-9.04164 21.37925,-15.67125 27.40746,-27.3497 1.28456,-6.03922 -6.37121,-8.76483 -9.92789,-12.15541 -5.90977,-4.53392 -12.98517,-7.58708 -18.67955,-12.26144 6.65635,-11.30321 17.03556,-20.83858 20.64364,-33.71664 -0.54358,-5.91491 -8.30482,-6.47153 -12.81586,-7.9433 -8.23091,-2.15744 -16.87161,-2.46626 -25.05969,-4.5912 1.64451,-15.17448 6.4977,-30.69704 5.1707,-46.04618 -12.05594,-1.10025 -24.08733,3.62737 -35.8392,6.29147 -2.70821,-0.0551 -8.37007,4.12685 -7.82361,-1.30618 -2.5542,-13.04568 -3.57118,-26.74808 -8.78198,-39.06527 -4.91048,-3.23892 -10.28271,2.50547 -14.54473,4.55217 -9.82536,5.75804 -18.73265,13.91355 -28.4009,19.21811 -10.41643,-12.62505 -17.73977,-27.81777 -29.00127,-39.62161 -4.57387,0.47172 -7.11171,6.67167 -10.29599,9.92413 -6.57916,8.49342 -11.78622,18.01054 -18.82504,26.14414 -12.1874,-8.2601 -22.48855,-19.59809 -35.87995,-26.02116 -4.81592,-0.42118 -4.84083,6.59745 -6.44411,9.68683 -3.84423,11.52514 -5.34902,23.67682 -8.79033,35.28049 -13.83783,-2.85502 -26.88454,-10.1035 -40.97205,-11.06024 -3.03662,3.35772 -0.73496,9.54713 -0.92826,14.02291 0.86772,9.89481 2.72931,19.59145 3.65023,29.45896 -12.15155,1.34765 -24.94329,-1.27357 -36.7147,2.47076 -4.16594,3.28842 0.72457,8.81539 1.59305,12.64506 3.37255,8.38602 7.96315,16.19781 11.66814,24.42368 -10.06669,7.21306 -22.5071,10.99456 -31.78811,19.24242 -2.02266,5.22006 4.62771,8.9948 6.86658,13.02609 4.42902,6.12106 10.8297,11.01019 14.30996,17.70179 -3.09096,0.62074 -6.65279,-2.76585 -9.68907,-4.25238 -12.22998,-8.09154 -25.0668,-15.39021 -36.1186,-25.03516 -0.39962,-9.73192 -4.02213,-18.97919 -8.111,-27.73913 -1.116352,-3.32531 4.81825,-2.13819 6.06508,-4.3173 24.55081,-14.60368 43.21069,-41.42981 43.60617,-70.52795 -0.79032,-10.83244 -3.82752,-22.08963 -10.01996,-30.94431 -4.76784,1.72841 -5.8671,8.52104 -9.44699,12.17674 -8.21169,11.8636 -18.5081,22.24224 -27.37521,33.5041 -0.90275,3.43647 2.45796,8.83111 -0.12542,11.76135 -2.731794,-0.0186 -0.93118,-4.94969 -1.61394,-6.64811 -0.972955,-27.57702 5.42892,-54.64584 13.57437,-80.83167 0.84232,-1.72601 -0.11421,-4.24023 -2.30289,-3.9101 z"
         id="path33"
         transform="scale(0.33333333)" /><path
         style="fill:#f74c00;fill-opacity:1;stroke:none;stroke-width:4.92182;stroke-linecap:round;stroke-linejoin:round;stroke-dasharray:none;stroke-opacity:1"
         d="m 141.55398,429.7078 c -11.31288,1.366 -22.84397,2.54829 -33.75204,5.75577 -20.309522,19.78276 -40.355513,44.10027 -41.781103,73.71786 -2.768867,6.63438 3.304477,11.81847 5.646212,3.26801 11.19559,-20.56488 27.596126,-38.43038 47.130301,-51.30943 16.11418,-8.45588 34.72186,-11.36919 51.99848,-16.28104 1.34879,-5.10276 -7.07663,-8.52052 -9.79248,-12.81541 -4.40906,-7.0049 -12.87481,-1.93094 -19.44937,-2.33576 z"
         id="path34"
         transform="scale(0.33333333)" /><path
         style="fill:#f74c00;fill-opacity:1;stroke:none;stroke-width:4.92182;stroke-linecap:round;stroke-linejoin:round;stroke-dasharray:none;stroke-opacity:1"
         d="m 173.91413,453.77434 c -13.29509,6.19327 -27.15391,11.78686 -39.24881,20.13868 -6.11133,7.43319 -8.30887,17.37525 -10.80535,26.50189 -1.91235,12.8239 -1.96633,26.08085 -0.0932,38.90597 0.27025,2.71295 2.8237,8.58151 5.67006,4.50176 6.15753,-24.73016 18.44645,-50.66291 42.14917,-62.7909 9.22841,-5.58644 20.049,-9.29658 28.84863,-15.46822 -2.22388,-5.1525 -9.29291,-7.07199 -13.48396,-10.89807 -4.41598,-4.56516 -7.91432,-3.7733 -13.03657,-0.89111 z"
         id="path35"
         transform="scale(0.33333333)" /><path
         style="fill:#f74c00;fill-opacity:1;stroke:none;stroke-width:4.92182;stroke-linecap:round;stroke-linejoin:round;stroke-dasharray:none;stroke-opacity:1"
         d="m 204.06625,467.17342 c -7.65844,3.3345 -15.07316,7.8832 -18.9819,15.57334 -5.56488,7.33615 -9.5292,16.69139 -6.42436,25.91704 3.96372,14.15706 11.77713,28.21162 24.07399,36.66626 5.32401,0.49241 2.24997,-6.50033 1.9658,-9.52153 -2.41364,-13.56294 -5.48295,-28.3958 0.82545,-41.3823 4.07474,-6.60003 10.20355,-11.5875 14.78538,-17.75923 -0.31126,-4.74779 -7.11402,-5.01762 -10.28687,-7.50509 -1.97603,-0.7403 -3.71955,-2.43723 -5.95749,-1.98849 z"
         id="path36"
         transform="scale(0.33333333)" /><path
         style="fill:#f74c00;fill-opacity:1;stroke:none;stroke-width:4.92182;stroke-linecap:round;stroke-linejoin:round;stroke-dasharray:none;stroke-opacity:1"
         d="m 371.85381,484.17056 c -4.67099,1.03774 -14.4832,3.89075 -6.72151,8.88352 8.99876,8.18833 18.02395,18.68291 17.02935,31.72178 0.24945,11.53397 -2.50103,22.96163 -4.50758,34.02823 2.69878,3.74264 7.00161,-2.35333 9.70436,-4.28417 10.45509,-11.40153 19.21554,-26.26047 18.84554,-42.16863 -1.71227,-9.50062 -8.1939,-17.45203 -14.19285,-24.71311 -4.72832,-3.86526 -10.88323,-8.50458 -16.94528,-4.5353 -1.07068,0.35589 -2.14135,0.71178 -3.21203,1.06768 z"
         id="path37"
         transform="scale(0.33333333)" /><path
         style="fill:#f74c00;fill-opacity:1;stroke:none;stroke-width:4.92182;stroke-linecap:round;stroke-linejoin:round;stroke-dasharray:none;stroke-opacity:1"
         d="m 406.03441,469.28269 c -6.0134,3.45969 -13.05475,5.5874 -18.42257,9.99853 -0.25531,4.63563 6.72145,5.02762 9.51947,7.71386 17.31489,9.29607 35.17131,19.87241 45.36813,37.33918 7.61058,11.27868 11.48617,24.30953 15.63505,37.13209 4.47104,2.81903 5.69672,-4.594 6.21974,-7.67313 1.435,-16.11433 1.70668,-32.87235 -4.54436,-48.11827 -2.33475,-6.57961 -4.45468,-14.38834 -11.75776,-17.07344 -13.25788,-7.3782 -27.15953,-14.10642 -41.27585,-19.33594 z"
         id="path38"
         transform="scale(0.33333333)" /><path
         style="fill:#f74c00;fill-opacity:1;stroke:none;stroke-width:4.92182;stroke-linecap:round;stroke-linejoin:round;stroke-dasharray:none;stroke-opacity:1"
         d="m 469.58082,453.58242 c -14.87894,0.66826 -30.01008,0.0205 -44.69528,2.61795 -2.80512,1.43611 -9.17326,4.68491 -6.01477,8.30851 12.95884,3.86216 26.47815,6.147 39.26231,10.806 17.31819,5.24225 30.0362,18.99665 42.10249,31.70532 8.2144,8.86024 14.57133,19.35307 20.05998,29.91739 4.79218,1.15278 3.17842,-6.55842 3.22322,-9.76323 -2.50601,-29.53022 -22.55111,-53.53551 -43.24999,-73.05903 -3.27603,-1.25205 -7.21132,-0.22282 -10.68796,-0.53291 z"
         id="path39"
         transform="scale(0.33333333)" /></g><path
       style="fill:none;fill-opacity:0.380435;stroke:#0a1a42;stroke-width:1.71969;stroke-linecap:round;stroke-linejoin:round;stroke-dasharray:none;stroke-opacity:1"
       d="M 33.867566,93.811569 C 33.231556,79.819334 36.186954,72.114091 39.114653,62.806052 10.850379,68.136506 7.7911298,100.01267 21.942367,108.91682 c -2.208402,15.37971 17.954629,26.3239 29.892499,32.43654 22.419375,26.55345 65.677744,30.34058 90.005154,9.82924 23.15817,0.89614 29.08783,-6.17217 33.69891,-13.6453 20.35234,-6.99612 13.99223,-39.432658 -7.79113,-45.156754 2.38504,8.268134 3.65707,19.398324 0.95402,29.892504"
       id="path3"
       sodipodi:nodetypes="cccccccc"
       inkscape:label="Bottom of Body" /><path
       style="fill:none;fill-opacity:0.380435;stroke:#0a1a42;stroke-width:1.71969;stroke-linecap:round;stroke-linejoin:round;stroke-dasharray:none;stroke-opacity:1"
       d="m 34.185573,89.041488 c 0,0 8.905141,-8.831715 11.766197,-15.582259 11.059422,15.813963 -3.339058,33.231561 -12.720216,36.570611 1.074853,1.62954 3.180055,6.3601 2.703047,9.22215 2.544042,2.06704 12.298593,8.76445 14.844289,9.78432 -2.070281,-2.20636 -7.762117,-8.45291 -7.698815,-9.70881 0.06778,-1.34472 11.196047,-6.75362 11.196047,-6.75362 0,0 -6.050087,-10.97806 -5.171582,-12.43114 0.878505,-1.453083 13.075144,-0.820639 13.075144,-0.820639 0,0 -2.462601,-13.527768 -1.281665,-14.732685 1.180936,-1.204917 14.095021,3.864289 14.095021,3.864289 0,0 2.716174,-15.118034 4.517934,-15.527702 1.80176,-0.409668 12.721867,9.111379 12.721867,9.111379 0,0 7.73417,-12.403506 9.332939,-12.402206 1.59877,0.0013 10.01716,13.654937 10.01716,13.654937 0,0 12.23242,-9.692973 14.13194,-8.613425 1.89953,1.079548 3.47878,14.608953 3.47878,14.608953 0,0 13.12437,-4.199218 14.41302,-2.637182 1.28865,1.562036 -1.78595,15.469831 -1.78595,15.469831 0,0 11.82472,0.94824 12.83264,3.4322 1.00793,2.48395 -7.04268,12.05526 -7.04268,12.05526 0,0 9.913,5.25346 10.02515,7.64177 0.11216,2.38831 -9.61401,9.78432 -9.61401,9.78432 l 4.53723,4.489"
       id="path4"
       inkscape:label="Hair"
       sodipodi:nodetypes="cccccsczczczczczczczczcc" /><path
       style="fill:none;fill-opacity:0.380435;stroke:#0a1a42;stroke-width:1.71969;stroke-linecap:round;stroke-linejoin:round;stroke-dasharray:none;stroke-opacity:1"
       d="m 147.11709,142.2263 c 4.72214,-2.64215 11.6367,-4.38484 11.6367,-4.38484 0,0 3.37295,-2.02377 5.28429,-3.99133 -6.35239,-4.15998 -10.57522,-20.47525 -1.96755,-31.31227 1.59193,4.16398 5.00321,12.25507 7.53292,14.67235"
       id="path12"
       sodipodi:nodetypes="ccccc"
       inkscape:label="Left Arm" /><path
       style="fill:none;fill-opacity:0.380435;stroke:#0a1a42;stroke-width:1.71969;stroke-linecap:round;stroke-linejoin:round;stroke-dasharray:none;stroke-opacity:1"
       d="m 74.992049,158.41649 c 0,0 -6.745909,5.50916 -7.083205,8.88211 -1.349182,5.50916 2.023772,16.86478 2.023772,16.86478 0,0 -10.568596,-6.18375 -11.130755,-17.3145 -0.224864,-3.1481 4.609707,-8.99455 4.609707,-8.99455"
       id="path15"
       sodipodi:nodetypes="ccccc"
       inkscape:label="Leg 3" /><path
       style="fill:none;fill-opacity:0.380435;stroke:#0a1a42;stroke-width:1.71969;stroke-linecap:round;stroke-linejoin:round;stroke-dasharray:none;stroke-opacity:1"
       d="m 68.021275,155.26839 c -5.621593,3.22305 -11.597349,4.6781 -16.190189,9.44428 -3.410432,3.6353 -7.837691,10.90794 -8.65725,19.67558 -1.703389,-1.05149 -6.183755,-11.46805 0.674588,-26.08419 2.248637,-2.58593 16.190189,-8.31996 16.190189,-8.31996"
       id="path16"
       sodipodi:nodetypes="ccccc"
       inkscape:label="Leg 2" /><path
       style="fill:none;fill-opacity:0.380435;stroke:#0a1a42;stroke-width:1.71969;stroke-linecap:round;stroke-linejoin:round;stroke-dasharray:none;stroke-opacity:1"
       d="m 58.689429,148.52249 c 0,0 -12.929663,2.1362 -19.338279,5.62159 -8.769685,6.74591 -13.604254,12.3675 -17.202074,21.58691 -0.337296,-3.37296 -4.047546,-14.16641 13.26696,-30.58146 2.473501,-1.79891 16.752347,-2.69836 16.752347,-2.69836"
       id="path17"
       sodipodi:nodetypes="ccccc"
       inkscape:label="Leg 1" /><path
       style="fill:none;fill-opacity:0.380435;stroke:#0a1a42;stroke-width:1.71969;stroke-linecap:round;stroke-linejoin:round;stroke-dasharray:none;stroke-opacity:1"
       d="m 119.68469,163.04754 c 0,0 6.7459,5.50916 7.0832,8.88211 1.34918,5.50916 -2.02377,16.86478 -2.02377,16.86478 0,0 10.56859,-6.18375 11.13075,-17.3145 0.22486,-3.1481 -4.60971,-8.99455 -4.60971,-8.99455"
       id="path15-0"
       sodipodi:nodetypes="ccccc"
       inkscape:label="Leg 4" /><path
       style="fill:none;fill-opacity:0.380435;stroke:#0a1a42;stroke-width:1.71969;stroke-linecap:round;stroke-linejoin:round;stroke-dasharray:none;stroke-opacity:1"
       d="m 127.55491,160.1243 c 5.62159,3.22305 11.82221,5.80242 16.41505,10.5686 3.41043,3.6353 7.83769,10.90794 8.65725,19.67558 1.70338,-1.05149 6.18375,-11.46805 -0.67459,-26.08419 -2.24864,-2.58593 -16.19019,-8.31996 -16.19019,-8.31996"
       id="path16-9"
       sodipodi:nodetypes="ccccc"
       inkscape:label="Leg 5" /><path
       style="fill:none;fill-opacity:0.380435;stroke:#0a1a42;stroke-width:1.71969;stroke-linecap:round;stroke-linejoin:round;stroke-dasharray:none;stroke-opacity:1"
       d="m 137.7862,155.06488 c 0,0 12.92967,2.1362 19.33828,5.62159 8.76969,6.74591 13.60426,12.3675 17.20207,21.58691 0.3373,-3.37296 4.04755,-14.16641 -13.26695,-30.58146 -2.47351,-1.79891 -5.05944,-0.89945 -5.05944,-0.89945"
       id="path17-3"
       sodipodi:nodetypes="ccccc"
       inkscape:label="Leg 6" /><g
       inkscape:groupmode="layer"
       id="layer4"
       inkscape:label="Face"
       style="display:inline"><ellipse
         style="display:inline;fill:#0a1a42;fill-opacity:1;stroke:none;stroke-width:1.85712;stroke-linecap:round;stroke-linejoin:round;stroke-dasharray:none;stroke-opacity:1"
         id="path18"
         ry="10.684705"
         rx="7.9528213"
         cy="103.97186"
         cx="96.568611"
         transform="rotate(8.295448)"
         inkscape:label="Eye right" /><ellipse
         style="display:inline;fill:#0a1a42;fill-opacity:1;stroke:none;stroke-width:1.88943;stroke-linecap:round;stroke-linejoin:round;stroke-dasharray:none;stroke-opacity:1"
         id="path18-3"
         ry="10.692635"
         rx="8.2258692"
         cy="102.46695"
         cx="131.33186"
         transform="matrix(0.9902237,0.13948847,-0.1492239,0.98880343,0,0)"
         inkscape:label="Eye left" /><ellipse
         style="fill:#ececec;fill-opacity:1;stroke:none;stroke-width:1.96398;stroke-linecap:round;stroke-linejoin:round;stroke-dasharray:none;stroke-opacity:1"
         id="path19"
         cx="114.20941"
         cy="93.068413"
         rx="2.2050195"
         ry="2.9908574"
         transform="matrix(0.9750724,0.22188688,-0.30107555,0.9536003,0,0)"
         inkscape:label="Iris right" /><ellipse
         style="fill:#ececec;fill-opacity:1;stroke:none;stroke-width:1.96398;stroke-linecap:round;stroke-linejoin:round;stroke-dasharray:none;stroke-opacity:1"
         id="path19-4"
         cx="147.4127"
         cy="88.89975"
         rx="2.2050195"
         ry="2.9908574"
         transform="matrix(0.9750724,0.22188688,-0.30107555,0.9536003,0,0)"
         inkscape:label="Iris left" /><path
         style="fill:#0a1a42;fill-opacity:1;stroke:#0a1a42;stroke-width:1.71969;stroke-linecap:round;stroke-linejoin:round;stroke-dasharray:none;stroke-opacity:1"
         d="m 110.26834,136.02677 c -5.80359,18.84182 -27.904963,11.8457 -26.950947,-2.62354 z"
         id="path20"
         sodipodi:nodetypes="ccc"
         inkscape:label="Mouth" /></g></g></svg>
